<?xml version="1.0" encoding="UTF-8" standalone="no"?>
<!-- Created with Inkscape (http://www.inkscape.org/) -->

<svg
   width="210mm"
   height="297mm"
   viewBox="0 0 210 297"
   version="1.1"
   id="svg5"
   inkscape:version="1.2.2 (732a01da63, 2022-12-09)"
   sodipodi:docname="moon.svg"
   xmlns:inkscape="http://www.inkscape.org/namespaces/inkscape"
   xmlns:sodipodi="http://sodipodi.sourceforge.net/DTD/sodipodi-0.dtd"
   xmlns="http://www.w3.org/2000/svg"
   xmlns:svg="http://www.w3.org/2000/svg">
  <sodipodi:namedview
     id="namedview7"
     pagecolor="#ffffff"
     bordercolor="#000000"
     borderopacity="0.25"
     inkscape:showpageshadow="2"
     inkscape:pageopacity="0.0"
     inkscape:pagecheckerboard="0"
     inkscape:deskcolor="#d1d1d1"
     inkscape:document-units="mm"
     showgrid="false"
     inkscape:zoom="0.52724989"
     inkscape:cx="113.79803"
     inkscape:cy="591.74977"
     inkscape:window-width="1920"
     inkscape:window-height="1017"
     inkscape:window-x="-8"
     inkscape:window-y="-8"
     inkscape:window-maximized="1"
     inkscape:current-layer="layer1" />
  <defs
     id="defs2" />
  <g
     inkscape:label="Слой 1"
     inkscape:groupmode="layer"
     id="layer1">
    <path
       id="path340"
       style="opacity:1;fill:#e8f43a;fill-opacity:1;stroke:#000000;stroke-width:1.86962;stroke-dasharray:none;stroke-opacity:1"
       d="M 56.713137,194.77929 A 86.545895,81.759437 0 0 1 52.700333,79.217016 86.545895,81.759437 0 0 1 68.063275,66.97686 86.545895,81.759437 0 0 0 83.998121,167.25487 86.545895,81.759437 0 0 0 190.9412,175.74389 86.545895,81.759437 0 0 1 179.04173,190.98925 86.545895,81.759437 0 0 1 56.713137,194.77929 Z" />
    <path
       sodipodi:type="star"
       style="opacity:1;fill:#e8f43a;fill-opacity:1;stroke:#000000;stroke-width:0.765;stroke-dasharray:none;stroke-opacity:1"
       id="path9783"
       inkscape:flatsided="false"
       sodipodi:sides="5"
       sodipodi:cx="115.67742"
       sodipodi:cy="129.51613"
       sodipodi:r1="7.9740081"
       sodipodi:r2="3.987004"
       sodipodi:arg1="0.56331626"
       sodipodi:arg2="1.1916348"
       inkscape:rounded="0"
       inkscape:randomized="0"
       d="m 122.41936,133.77419 -5.26618,-0.55423 -3.44205,4.02394 -1.10022,-5.1797 -4.89066,-2.03011 4.5862,-2.64699 0.41946,-5.27863 3.93466,3.54377 5.14988,-1.23226 -2.15444,4.83717 z"
       inkscape:transform-center-x="1.5278327"
       inkscape:transform-center-y="0.38021134"
       transform="matrix(2.5144544,0,0,2.3753915,-171.23799,-186.26483)" />
    <path
       sodipodi:type="star"
       style="opacity:1;fill:#e8f43a;fill-opacity:1;stroke:#000000;stroke-width:0.765;stroke-dasharray:none;stroke-opacity:1"
       id="path10511"
       inkscape:flatsided="false"
       sodipodi:sides="5"
       sodipodi:cx="122.41936"
       sodipodi:cy="150.80646"
       sodipodi:r1="3.5127239"
       sodipodi:r2="1.7563618"
       sodipodi:arg1="0.78539816"
       sodipodi:arg2="1.4137167"
       inkscape:rounded="0"
       inkscape:randomized="0"
       d="m 124.90323,153.29033 -2.20912,-0.74913 -1.8695,1.39512 0.0298,-2.33249 -1.90455,-1.34688 2.22754,-0.69243 0.69243,-2.22754 1.34688,1.90455 2.33249,-0.0298 -1.39512,1.8695 z"
       inkscape:transform-center-x="0.42698498"
       inkscape:transform-center-y="-0.40335561"
       transform="matrix(2.5144544,0,0,2.3753915,-171.23799,-186.26483)" />
    <path
       sodipodi:type="star"
       style="opacity:1;fill:#e8f43a;fill-opacity:1;stroke:#000000;stroke-width:0.765;stroke-dasharray:none;stroke-opacity:1"
       id="path10515"
       inkscape:flatsided="false"
       sodipodi:sides="5"
       sodipodi:cx="133.77419"
       sodipodi:cy="141.58064"
       sodipodi:r1="4.0457835"
       sodipodi:r2="2.0228918"
       sodipodi:arg1="0.66104317"
       sodipodi:arg2="1.2893617"
       inkscape:rounded="0"
       inkscape:randomized="0"
       d="m 136.96773,144.06451 -2.63172,-0.54056 -1.93727,1.8615 -0.29914,-2.66996 -2.36903,-1.26722 2.44684,-1.10956 0.47312,-2.64468 1.81138,1.98421 2.66144,-0.36728 -1.32736,2.33587 z"
       inkscape:transform-center-x="0.87309823"
       inkscape:transform-center-y="-0.097161222"
       transform="matrix(2.5144544,0,0,2.3753915,-171.23799,-186.26483)" />
    <path
       sodipodi:type="star"
       style="opacity:1;fill:#e8f43a;fill-opacity:1;stroke:#000000;stroke-width:0.765;stroke-dasharray:none;stroke-opacity:1"
       id="path10517"
       inkscape:flatsided="false"
       sodipodi:sides="5"
       sodipodi:cx="104.67741"
       sodipodi:cy="142.29033"
       sodipodi:r1="1.5054532"
       sodipodi:r2="0.75272661"
       sodipodi:arg1="0.78539816"
       sodipodi:arg2="1.4137167"
       inkscape:rounded="0"
       inkscape:randomized="0"
       d="m 105.74192,143.35485 -0.94676,-0.32106 -0.80122,0.59791 0.0128,-0.99964 -0.81623,-0.57724 0.95466,-0.29675 0.29675,-0.95466 0.57724,0.81623 0.99963,-0.0128 -0.5979,0.80121 z"
       inkscape:transform-center-x="0.18299759"
       inkscape:transform-center-y="-0.17286364"
       transform="matrix(2.5144544,0,0,2.3753915,-171.23799,-186.26483)" />
    <path
       sodipodi:type="star"
       style="opacity:1;fill:#e8f43a;fill-opacity:1;stroke:#000000;stroke-width:0.765;stroke-dasharray:none;stroke-opacity:1"
       id="path10519"
       inkscape:flatsided="false"
       sodipodi:sides="5"
       sodipodi:cx="101.12903"
       sodipodi:cy="117.45161"
       sodipodi:r1="4.8263283"
       sodipodi:r2="2.4131641"
       sodipodi:arg1="0.62879629"
       sodipodi:arg2="1.2571148"
       inkscape:rounded="0"
       inkscape:randomized="0"
       d="m 105.03225,120.29032 -3.15861,-0.5433 -2.238222,2.29398 -0.459358,-3.1719 -2.873359,-1.4198 2.874714,-1.41705 0.462389,-3.17147 2.236026,2.29613 3.15913,-0.54028 -1.49277,2.83613 z"
       inkscape:transform-center-x="1.157149"
       inkscape:transform-center-y="-0.0016869518"
       transform="matrix(2.5144544,0,0,2.3753915,-171.23799,-186.26483)" />
  </g>
</svg>
