<svg width="388" height="548" viewBox="0 0 388 548" fill="none" xmlns="http://www.w3.org/2000/svg">
<rect width="388" height="548" fill="white"/>
<path d="M271 273.5C271 308.395 236.495 337 193.5 337C150.505 337 116 308.395 116 273.5C116 238.605 150.505 210 193.5 210C236.495 210 271 238.605 271 273.5Z" fill="#E8F43A" stroke="black" stroke-width="2"/>
<g filter="url(#filter0_d_1_2)">
<rect x="187" y="103" width="13" height="65" rx="6.5" fill="#E8F43A"/>
<rect x="188" y="104" width="11" height="63" rx="5.5" stroke="black" stroke-width="2"/>
</g>
<g filter="url(#filter1_d_1_2)">
<rect x="72" y="280" width="65" height="13" rx="6.5" transform="rotate(-180 72 280)" fill="#E8F43A"/>
<rect x="71" y="279" width="63" height="11" rx="5.5" transform="rotate(-180 71 279)" stroke="black" stroke-width="2"/>
</g>
<g filter="url(#filter2_d_1_2)">
<rect x="96.2293" y="195.939" width="65" height="13" rx="6.5" transform="rotate(-135.334 96.2293 195.939)" fill="#E8F43A"/>
<rect x="96.2211" y="194.525" width="63" height="11" rx="5.5" transform="rotate(-135.334 96.2211 194.525)" stroke="black" stroke-width="2"/>
</g>
<g filter="url(#filter3_d_1_2)">
<rect x="315.229" y="411.939" width="65" height="13" rx="6.5" transform="rotate(-135.334 315.229 411.939)" fill="#E8F43A"/>
<rect x="315.221" y="410.525" width="63" height="11" rx="5.5" transform="rotate(-135.334 315.221 410.525)" stroke="black" stroke-width="2"/>
</g>
<g filter="url(#filter4_d_1_2)">
<path d="M100.49 351C103.107 353.457 103.237 357.571 100.78 360.188L65.1878 398.098C62.7307 400.716 58.6172 400.845 56 398.388V398.388C53.3828 395.931 53.2531 391.818 55.7102 389.2L91.3021 351.29C93.7592 348.673 97.8728 348.543 100.49 351V351Z" fill="#E8F43A"/>
<path d="M100.051 359.503L64.4588 397.414C62.3797 399.628 58.899 399.738 56.6845 397.659C54.4699 395.58 54.3601 392.099 56.4392 389.885L92.0312 351.974C94.1103 349.76 97.591 349.65 99.8055 351.729C102.02 353.808 102.13 357.289 100.051 359.503Z" stroke="black" stroke-width="2"/>
</g>
<g filter="url(#filter5_d_1_2)">
<path d="M326.229 139.449C328.846 141.906 328.976 146.02 326.519 148.637L290.927 186.547C288.47 189.165 284.356 189.294 281.739 186.837V186.837C279.122 184.38 278.992 180.267 281.449 177.649L317.041 139.739C319.498 137.122 323.612 136.992 326.229 139.449V139.449Z" fill="#E8F43A"/>
<path d="M325.79 147.952L290.198 185.863C288.118 188.077 284.638 188.187 282.423 186.108C280.209 184.029 280.099 180.548 282.178 178.334L317.77 140.423C319.849 138.209 323.33 138.099 325.544 140.178C327.759 142.257 327.869 145.738 325.79 147.952Z" stroke="black" stroke-width="2"/>
</g>
<g filter="url(#filter6_d_1_2)">
<rect x="380" y="280" width="65" height="13" rx="6.5" transform="rotate(180 380 280)" fill="#E8F43A"/>
<rect x="379" y="279" width="63" height="11" rx="5.5" transform="rotate(180 379 279)" stroke="black" stroke-width="2"/>
</g>
<g filter="url(#filter7_d_1_2)">
<rect x="187" y="379" width="13" height="65" rx="6.5" fill="#E8F43A"/>
<rect x="188" y="380" width="11" height="63" rx="5.5" stroke="black" stroke-width="2"/>
</g>
<defs>
<filter id="filter0_d_1_2" x="183" y="103" width="21" height="73" filterUnits="userSpaceOnUse" color-interpolation-filters="sRGB">
<feFlood flood-opacity="0" result="BackgroundImageFix"/>
<feColorMatrix in="SourceAlpha" type="matrix" values="0 0 0 0 0 0 0 0 0 0 0 0 0 0 0 0 0 0 127 0" result="hardAlpha"/>
<feOffset dy="4"/>
<feGaussianBlur stdDeviation="2"/>
<feComposite in2="hardAlpha" operator="out"/>
<feColorMatrix type="matrix" values="0 0 0 0 0 0 0 0 0 0 0 0 0 0 0 0 0 0 0.25 0"/>
<feBlend mode="normal" in2="BackgroundImageFix" result="effect1_dropShadow_1_2"/>
<feBlend mode="normal" in="SourceGraphic" in2="effect1_dropShadow_1_2" result="shape"/>
</filter>
<filter id="filter1_d_1_2" x="3" y="267" width="73" height="21" filterUnits="userSpaceOnUse" color-interpolation-filters="sRGB">
<feFlood flood-opacity="0" result="BackgroundImageFix"/>
<feColorMatrix in="SourceAlpha" type="matrix" values="0 0 0 0 0 0 0 0 0 0 0 0 0 0 0 0 0 0 127 0" result="hardAlpha"/>
<feOffset dy="4"/>
<feGaussianBlur stdDeviation="2"/>
<feComposite in2="hardAlpha" operator="out"/>
<feColorMatrix type="matrix" values="0 0 0 0 0 0 0 0 0 0 0 0 0 0 0 0 0 0 0.25 0"/>
<feBlend mode="normal" in2="BackgroundImageFix" result="effect1_dropShadow_1_2"/>
<feBlend mode="normal" in="SourceGraphic" in2="effect1_dropShadow_1_2" result="shape"/>
</filter>
<filter id="filter2_d_1_2" x="48.6922" y="143.692" width="57.9834" height="57.5544" filterUnits="userSpaceOnUse" color-interpolation-filters="sRGB">
<feFlood flood-opacity="0" result="BackgroundImageFix"/>
<feColorMatrix in="SourceAlpha" type="matrix" values="0 0 0 0 0 0 0 0 0 0 0 0 0 0 0 0 0 0 127 0" result="hardAlpha"/>
<feOffset dy="4"/>
<feGaussianBlur stdDeviation="2"/>
<feComposite in2="hardAlpha" operator="out"/>
<feColorMatrix type="matrix" values="0 0 0 0 0 0 0 0 0 0 0 0 0 0 0 0 0 0 0.25 0"/>
<feBlend mode="normal" in2="BackgroundImageFix" result="effect1_dropShadow_1_2"/>
<feBlend mode="normal" in="SourceGraphic" in2="effect1_dropShadow_1_2" result="shape"/>
</filter>
<filter id="filter3_d_1_2" x="267.692" y="359.692" width="57.9834" height="57.5544" filterUnits="userSpaceOnUse" color-interpolation-filters="sRGB">
<feFlood flood-opacity="0" result="BackgroundImageFix"/>
<feColorMatrix in="SourceAlpha" type="matrix" values="0 0 0 0 0 0 0 0 0 0 0 0 0 0 0 0 0 0 127 0" result="hardAlpha"/>
<feOffset dy="4"/>
<feGaussianBlur stdDeviation="2"/>
<feComposite in2="hardAlpha" operator="out"/>
<feColorMatrix type="matrix" values="0 0 0 0 0 0 0 0 0 0 0 0 0 0 0 0 0 0 0.25 0"/>
<feBlend mode="normal" in2="BackgroundImageFix" result="effect1_dropShadow_1_2"/>
<feBlend mode="normal" in="SourceGraphic" in2="effect1_dropShadow_1_2" result="shape"/>
</filter>
<filter id="filter4_d_1_2" x="49.949" y="349.239" width="56.592" height="58.9106" filterUnits="userSpaceOnUse" color-interpolation-filters="sRGB">
<feFlood flood-opacity="0" result="BackgroundImageFix"/>
<feColorMatrix in="SourceAlpha" type="matrix" values="0 0 0 0 0 0 0 0 0 0 0 0 0 0 0 0 0 0 127 0" result="hardAlpha"/>
<feOffset dy="4"/>
<feGaussianBlur stdDeviation="2"/>
<feComposite in2="hardAlpha" operator="out"/>
<feColorMatrix type="matrix" values="0 0 0 0 0 0 0 0 0 0 0 0 0 0 0 0 0 0 0.25 0"/>
<feBlend mode="normal" in2="BackgroundImageFix" result="effect1_dropShadow_1_2"/>
<feBlend mode="normal" in="SourceGraphic" in2="effect1_dropShadow_1_2" result="shape"/>
</filter>
<filter id="filter5_d_1_2" x="275.688" y="137.688" width="56.592" height="58.9106" filterUnits="userSpaceOnUse" color-interpolation-filters="sRGB">
<feFlood flood-opacity="0" result="BackgroundImageFix"/>
<feColorMatrix in="SourceAlpha" type="matrix" values="0 0 0 0 0 0 0 0 0 0 0 0 0 0 0 0 0 0 127 0" result="hardAlpha"/>
<feOffset dy="4"/>
<feGaussianBlur stdDeviation="2"/>
<feComposite in2="hardAlpha" operator="out"/>
<feColorMatrix type="matrix" values="0 0 0 0 0 0 0 0 0 0 0 0 0 0 0 0 0 0 0.25 0"/>
<feBlend mode="normal" in2="BackgroundImageFix" result="effect1_dropShadow_1_2"/>
<feBlend mode="normal" in="SourceGraphic" in2="effect1_dropShadow_1_2" result="shape"/>
</filter>
<filter id="filter6_d_1_2" x="311" y="267" width="73" height="21" filterUnits="userSpaceOnUse" color-interpolation-filters="sRGB">
<feFlood flood-opacity="0" result="BackgroundImageFix"/>
<feColorMatrix in="SourceAlpha" type="matrix" values="0 0 0 0 0 0 0 0 0 0 0 0 0 0 0 0 0 0 127 0" result="hardAlpha"/>
<feOffset dy="4"/>
<feGaussianBlur stdDeviation="2"/>
<feComposite in2="hardAlpha" operator="out"/>
<feColorMatrix type="matrix" values="0 0 0 0 0 0 0 0 0 0 0 0 0 0 0 0 0 0 0.25 0"/>
<feBlend mode="normal" in2="BackgroundImageFix" result="effect1_dropShadow_1_2"/>
<feBlend mode="normal" in="SourceGraphic" in2="effect1_dropShadow_1_2" result="shape"/>
</filter>
<filter id="filter7_d_1_2" x="183" y="379" width="21" height="73" filterUnits="userSpaceOnUse" color-interpolation-filters="sRGB">
<feFlood flood-opacity="0" result="BackgroundImageFix"/>
<feColorMatrix in="SourceAlpha" type="matrix" values="0 0 0 0 0 0 0 0 0 0 0 0 0 0 0 0 0 0 127 0" result="hardAlpha"/>
<feOffset dy="4"/>
<feGaussianBlur stdDeviation="2"/>
<feComposite in2="hardAlpha" operator="out"/>
<feColorMatrix type="matrix" values="0 0 0 0 0 0 0 0 0 0 0 0 0 0 0 0 0 0 0.25 0"/>
<feBlend mode="normal" in2="BackgroundImageFix" result="effect1_dropShadow_1_2"/>
<feBlend mode="normal" in="SourceGraphic" in2="effect1_dropShadow_1_2" result="shape"/>
</filter>
</defs>
</svg>
